{
    "asset" : {
        "generator" : "Khronos glTF Blender I/O v1.5.17",
        "version" : "2.0"
    },
    "scene" : 0,
    "scenes" : [
        {
            "name" : "Scene",
            "nodes" : [
                0,
                1,
                2,
                3
            ]
        }
    ],
    "nodes" : [
        {
            "name" : "Light",
            "rotation" : [
                0.16907575726509094,
                0.7558803558349609,
                -0.27217137813568115,
                0.570947527885437
            ],
            "translation" : [
                4.076245307922363,
                5.903861999511719,
                -1.0054539442062378
            ]
        },
        {
            "name" : "Camera",
            "rotation" : [
                0.483536034822464,
                0.33687159419059753,
                -0.20870360732078552,
                0.7804827094078064
            ],
            "translation" : [
                7.358891487121582,
                4.958309173583984,
                6.925790786743164
            ]
        },
        {
            "mesh" : 0,
            "name" : "Suzanne",
            "rotation" : [
                -0.7071068286895752,
                0,
                0,
                0.7071068286895752
            ]
        },
        {
            "name" : "Point"
        }
    ],
    "materials" : [
        {
            "doubleSided" : true,
            "name" : "Material.001",
            "pbrMetallicRoughness" : {
                "baseColorFactor" : [
                    0.7470895051956177,
                    0.8000000715255737,
                    0.776313304901123,
                    1
                ],
                "metallicFactor" : 0,
                "roughnessFactor" : 0.5
            }
        },
        {
            "doubleSided" : true,
            "name" : "Material.002",
            "pbrMetallicRoughness" : {
                "baseColorFactor" : [
                    0,
                    0,
                    0,
                    1
                ],
                "metallicFactor" : 0,
                "roughnessFactor" : 0.5
            }
        },
        {
            "doubleSided" : true,
            "emissiveFactor" : [
                0.799102783203125,
                0.29177066683769226,
                0
            ],
            "name" : "Material.003",
            "pbrMetallicRoughness" : {
                "baseColorFactor" : [
                    0.8000000715255737,
                    0.2901945114135742,
                    0,
                    1
                ],
                "metallicFactor" : 0,
                "roughnessFactor" : 0.5
            }
        },
        {
            "doubleSided" : true,
            "emissiveFactor" : [
                0,
                0.006512089632451534,
                0.799102783203125
            ],
            "name" : "Material.004",
            "pbrMetallicRoughness" : {
                "baseColorFactor" : [
                    0,
                    0.006620889063924551,
                    0.8000000715255737,
                    1
                ],
                "metallicFactor" : 0,
                "roughnessFactor" : 0.5
            }
        },
        {
            "doubleSided" : true,
            "emissiveFactor" : [
                0.012983035296201706,
                0.799102783203125,
                0
            ],
            "name" : "Material.005",
            "pbrMetallicRoughness" : {
                "baseColorFactor" : [
                    0.012823797762393951,
                    0.8000000715255737,
                    0,
                    1
                ],
                "metallicFactor" : 0,
                "roughnessFactor" : 0.5
            }
        },
        {
            "doubleSided" : true,
            "emissiveFactor" : [
                0,
                0.630757212638855,
                0.799102783203125
            ],
            "name" : "Material.006",
            "pbrMetallicRoughness" : {
                "baseColorFactor" : [
                    0,
                    0.6305420398712158,
                    0.8000000715255737,
                    1
                ],
                "metallicFactor" : 0,
                "roughnessFactor" : 0.5
            }
        },
        {
            "doubleSided" : true,
            "name" : "Material.007",
            "pbrMetallicRoughness" : {
                "baseColorFactor" : [
                    0.7605522871017456,
                    0,
                    0.8000000715255737,
                    1
                ],
                "metallicFactor" : 0,
                "roughnessFactor" : 0.5
            }
        }
    ],
    "meshes" : [
        {
            "name" : "Suzanne",
            "primitives" : [
                {
                    "attributes" : {
                        "POSITION" : 0,
                        "NORMAL" : 1,
                        "TEXCOORD_0" : 2
                    },
                    "indices" : 3,
                    "material" : 0
                },
                {
                    "attributes" : {
                        "POSITION" : 4,
                        "NORMAL" : 5,
                        "TEXCOORD_0" : 6
                    },
                    "indices" : 7,
                    "material" : 1
                },
                {
                    "attributes" : {
                        "POSITION" : 8,
                        "NORMAL" : 9,
                        "TEXCOORD_0" : 10
                    },
                    "indices" : 11,
                    "material" : 2
                },
                {
                    "attributes" : {
                        "POSITION" : 12,
                        "NORMAL" : 13,
                        "TEXCOORD_0" : 14
                    },
                    "indices" : 15,
                    "material" : 3
                },
                {
                    "attributes" : {
                        "POSITION" : 16,
                        "NORMAL" : 17,
                        "TEXCOORD_0" : 18
                    },
                    "indices" : 19,
                    "material" : 4
                },
                {
                    "attributes" : {
                        "POSITION" : 20,
                        "NORMAL" : 21,
                        "TEXCOORD_0" : 22
                    },
                    "indices" : 23,
                    "material" : 5
                },
                {
                    "attributes" : {
                        "POSITION" : 24,
                        "NORMAL" : 25,
                        "TEXCOORD_0" : 26
                    },
                    "indices" : 27,
                    "material" : 6
                }
            ]
        }
    ],
    "accessors" : [
        {
            "bufferView" : 0,
            "componentType" : 5126,
            "count" : 1994,
            "max" : [
                2.7002577781677246,
                0.9296875,
                5.092206954956055
            ],
            "min" : [
                -2.7002577781677246,
                -2.1409659385681152,
                -0.703125
            ],
            "type" : "VEC3"
        },
        {
            "bufferView" : 1,
            "componentType" : 5126,
            "count" : 1994,
            "type" : "VEC3"
        },
        {
            "bufferView" : 2,
            "componentType" : 5126,
            "count" : 1994,
            "type" : "VEC2"
        },
        {
            "bufferView" : 3,
            "componentType" : 5123,
            "count" : 2976,
            "type" : "SCALAR"
        },
        {
            "bufferView" : 4,
            "componentType" : 5126,
            "count" : 416,
            "max" : [
                1.9397331476211548,
                3.0609657764434814,
                2.534585475921631
            ],
            "min" : [
                -1.9397331476211548,
                0.03125,
                -0.1953125
            ],
            "type" : "VEC3"
        },
        {
            "bufferView" : 5,
            "componentType" : 5126,
            "count" : 416,
            "type" : "VEC3"
        },
        {
            "bufferView" : 6,
            "componentType" : 5126,
            "count" : 416,
            "type" : "VEC2"
        },
        {
            "bufferView" : 7,
            "componentType" : 5123,
            "count" : 600,
            "type" : "SCALAR"
        },
        {
            "bufferView" : 8,
            "componentType" : 5126,
            "count" : 404,
            "max" : [
                2.7002577781677246,
                0.5078125,
                2.423226833343506
            ],
            "min" : [
                -2.7002577781677246,
                -0.3483344316482544,
                -0.546875
            ],
            "type" : "VEC3"
        },
        {
            "bufferView" : 9,
            "componentType" : 5126,
            "count" : 404,
            "type" : "VEC3"
        },
        {
            "bufferView" : 10,
            "componentType" : 5126,
            "count" : 404,
            "type" : "VEC2"
        },
        {
            "bufferView" : 11,
            "componentType" : 5123,
            "count" : 600,
            "type" : "SCALAR"
        },
        {
            "bufferView" : 12,
            "componentType" : 5126,
            "count" : 228,
            "max" : [
                2.789362668991089,
                0.09375,
                2.300065755844116
            ],
            "min" : [
                -2.789362668991089,
                -1.9574073553085327,
                -0.265625
            ],
            "type" : "VEC3"
        },
        {
            "bufferView" : 13,
            "componentType" : 5126,
            "count" : 228,
            "type" : "VEC3"
        },
        {
            "bufferView" : 14,
            "componentType" : 5126,
            "count" : 228,
            "type" : "VEC2"
        },
        {
            "bufferView" : 15,
            "componentType" : 5123,
            "count" : 336,
            "type" : "SCALAR"
        },
        {
            "bufferView" : 16,
            "componentType" : 5126,
            "count" : 520,
            "max" : [
                0.859375,
                0.9296875,
                5.115644454956055
            ],
            "min" : [
                -0.859375,
                -2.3050284385681152,
                -0.4453125
            ],
            "type" : "VEC3"
        },
        {
            "bufferView" : 17,
            "componentType" : 5126,
            "count" : 520,
            "type" : "VEC3"
        },
        {
            "bufferView" : 18,
            "componentType" : 5126,
            "count" : 520,
            "type" : "VEC2"
        },
        {
            "bufferView" : 19,
            "componentType" : 5123,
            "count" : 816,
            "type" : "SCALAR"
        },
        {
            "bufferView" : 20,
            "componentType" : 5126,
            "count" : 1032,
            "max" : [
                1.0390625,
                0.984375,
                0.8515625
            ],
            "min" : [
                -1.0390625,
                -0.984375,
                -0.8515625
            ],
            "type" : "VEC3"
        },
        {
            "bufferView" : 21,
            "componentType" : 5126,
            "count" : 1032,
            "type" : "VEC3"
        },
        {
            "bufferView" : 22,
            "componentType" : 5126,
            "count" : 1032,
            "type" : "VEC2"
        },
        {
            "bufferView" : 23,
            "componentType" : 5123,
            "count" : 1584,
            "type" : "SCALAR"
        },
        {
            "bufferView" : 24,
            "componentType" : 5126,
            "count" : 92,
            "max" : [
                0.1328125,
                -0.125,
                0.828125
            ],
            "min" : [
                -0.1328125,
                -0.3203125,
                0.7421875
            ],
            "type" : "VEC3"
        },
        {
            "bufferView" : 25,
            "componentType" : 5126,
            "count" : 92,
            "type" : "VEC3"
        },
        {
            "bufferView" : 26,
            "componentType" : 5126,
            "count" : 92,
            "type" : "VEC2"
        },
        {
            "bufferView" : 27,
            "componentType" : 5123,
            "count" : 168,
            "type" : "SCALAR"
        }
    ],
    "bufferViews" : [
        {
            "buffer" : 0,
            "byteLength" : 23928,
            "byteOffset" : 0
        },
        {
            "buffer" : 0,
            "byteLength" : 23928,
            "byteOffset" : 23928
        },
        {
            "buffer" : 0,
            "byteLength" : 15952,
            "byteOffset" : 47856
        },
        {
            "buffer" : 0,
            "byteLength" : 5952,
            "byteOffset" : 63808
        },
        {
            "buffer" : 0,
            "byteLength" : 4992,
            "byteOffset" : 69760
        },
        {
            "buffer" : 0,
            "byteLength" : 4992,
            "byteOffset" : 74752
        },
        {
            "buffer" : 0,
            "byteLength" : 3328,
            "byteOffset" : 79744
        },
        {
            "buffer" : 0,
            "byteLength" : 1200,
            "byteOffset" : 83072
        },
        {
            "buffer" : 0,
            "byteLength" : 4848,
            "byteOffset" : 84272
        },
        {
            "buffer" : 0,
            "byteLength" : 4848,
            "byteOffset" : 89120
        },
        {
            "buffer" : 0,
            "byteLength" : 3232,
            "byteOffset" : 93968
        },
        {
            "buffer" : 0,
            "byteLength" : 1200,
            "byteOffset" : 97200
        },
        {
            "buffer" : 0,
            "byteLength" : 2736,
            "byteOffset" : 98400
        },
        {
            "buffer" : 0,
            "byteLength" : 2736,
            "byteOffset" : 101136
        },
        {
            "buffer" : 0,
            "byteLength" : 1824,
            "byteOffset" : 103872
        },
        {
            "buffer" : 0,
            "byteLength" : 672,
            "byteOffset" : 105696
        },
        {
            "buffer" : 0,
            "byteLength" : 6240,
            "byteOffset" : 106368
        },
        {
            "buffer" : 0,
            "byteLength" : 6240,
            "byteOffset" : 112608
        },
        {
            "buffer" : 0,
            "byteLength" : 4160,
            "byteOffset" : 118848
        },
        {
            "buffer" : 0,
            "byteLength" : 1632,
            "byteOffset" : 123008
        },
        {
            "buffer" : 0,
            "byteLength" : 12384,
            "byteOffset" : 124640
        },
        {
            "buffer" : 0,
            "byteLength" : 12384,
            "byteOffset" : 137024
        },
        {
            "buffer" : 0,
            "byteLength" : 8256,
            "byteOffset" : 149408
        },
        {
            "buffer" : 0,
            "byteLength" : 3168,
            "byteOffset" : 157664
        },
        {
            "buffer" : 0,
            "byteLength" : 1104,
            "byteOffset" : 160832
        },
        {
            "buffer" : 0,
            "byteLength" : 1104,
            "byteOffset" : 161936
        },
        {
            "buffer" : 0,
            "byteLength" : 736,
            "byteOffset" : 163040
        },
        {
            "buffer" : 0,
            "byteLength" : 336,
            "byteOffset" : 163776
        }
    ],
    "buffers" : [
        {
            "byteLength" : 164112,
            "uri" : "data:application/octet-stream;base64,"
        }
    ]
}
